mesh Box
scale 39.37000
vertices 24
v -0.500000 -0.500000 -0.500000 0.000000 0.000000 -1.000000 0.000000 0.000000 0 0 0 0 1.000000 0.000000 0.000000 0.000000
v 0.500000 -0.500000 -0.500000 0.000000 0.000000 -1.000000 1.000000 0.000000 0 0 0 0 1.000000 0.000000 0.000000 0.000000
v 0.500000 0.500000 -0.500000 0.000000 0.000000 -1.000000 0.000000 1.000000 0 0 0 0 1.000000 0.000000 0.000000 0.000000
v -0.500000 0.500000 -0.500000 0.000000 0.000000 -1.000000 1.000000 1.000000 0 0 0 0 1.000000 0.000000 0.000000 0.000000
v 0.500000 -0.500000 0.500000 0.000000 0.000000 1.000000 0.000000 0.000000 0 0 0 0 1.000000 0.000000 0.000000 0.000000
v -0.500000 -0.500000 0.500000 0.000000 0.000000 1.000000 1.000000 0.000000 0 0 0 0 1.000000 0.000000 0.000000 0.000000
v -0.500000 0.500000 0.500000 0.000000 0.000000 1.000000 0.000000 1.000000 0 0 0 0 1.000000 0.000000 0.000000 0.000000
v 0.500000 0.500000 0.500000 0.000000 0.000000 1.000000 1.000000 1.000000 0 0 0 0 1.000000 0.000000 0.000000 0.000000
v -0.500000 -0.500000 0.500000 -1.000000 0.000000 0.000000 0.000000 0.000000 0 0 0 0 1.000000 0.000000 0.000000 0.000000
v -0.500000 -0.500000 -0.500000 -1.000000 0.000000 0.000000 1.000000 0.000000 0 0 0 0 1.000000 0.000000 0.000000 0.000000
v -0.500000 0.500000 -0.500000 -1.000000 0.000000 0.000000 0.000000 1.000000 0 0 0 0 1.000000 0.000000 0.000000 0.000000
v -0.500000 0.500000 0.500000 -1.000000 0.000000 0.000000 1.000000 1.000000 0 0 0 0 1.000000 0.000000 0.000000 0.000000
v 0.500000 -0.500000 -0.500000 1.000000 0.000000 0.000000 0.000000 0.000000 0 0 0 0 1.000000 0.000000 0.000000 0.000000
v 0.500000 -0.500000 0.500000 1.000000 0.000000 0.000000 1.000000 0.000000 0 0 0 0 1.000000 0.000000 0.000000 0.000000
v 0.500000 0.500000 0.500000 1.000000 0.000000 0.000000 0.000000 1.000000 0 0 0 0 1.000000 0.000000 0.000000 0.000000
v 0.500000 0.500000 -0.500000 1.000000 0.000000 0.000000 1.000000 1.000000 0 0 0 0 1.000000 0.000000 0.000000 0.000000
v -0.500000 -0.500000 0.500000 0.000000 -1.000000 0.000000 0.000000 0.000000 0 0 0 0 1.000000 0.000000 0.000000 0.000000
v 0.500000 -0.500000 0.500000 0.000000 -1.000000 0.000000 1.000000 0.000000 0 0 0 0 1.000000 0.000000 0.000000 0.000000
v 0.500000 -0.500000 -0.500000 0.000000 -1.000000 0.000000 0.000000 1.000000 0 0 0 0 1.000000 0.000000 0.000000 0.000000
v -0.500000 -0.500000 -0.500000 0.000000 -1.000000 0.000000 1.000000 1.000000 0 0 0 0 1.000000 0.000000 0.000000 0.000000
v -0.500000 0.500000 -0.500000 0.000000 1.000000 0.000000 0.000000 0.000000 0 0 0 0 1.000000 0.000000 0.000000 0.000000
v 0.500000 0.500000 -0.500000 0.000000 1.000000 0.000000 1.000000 0.000000 0 0 0 0 1.000000 0.000000 0.000000 0.000000
v 0.500000 0.500000 0.500000 0.000000 1.000000 0.000000 0.000000 1.000000 0 0 0 0 1.000000 0.000000 0.000000 0.000000
v -0.500000 0.500000 0.500000 0.000000 1.000000 0.000000 1.000000 1.000000 0 0 0 0 1.000000 0.000000 0.000000 0.000000
indices 36
i 0 2 1
i 0 3 2
i 4 6 5
i 4 7 6
i 8 10 9
i 8 11 10
i 12 14 13
i 12 15 14
i 16 18 17
i 16 19 18
i 20 22 21
i 20 23 22
