mesh Sphere
scale 39.37000
vertices 289
v 0.000000 0.500000 0.000000 0.000000 1.000000 0.000000 0.000000 0.000000 0 0 0 0 1.000000 0.000000 0.000000 0.000000
v 0.000000 0.500000 0.000000 0.000000 1.000000 0.000000 0.062500 0.000000 0 0 0 0 1.000000 0.000000 0.000000 0.000000
v 0.000000 0.500000 0.000000 0.000000 1.000000 0.000000 0.125000 0.000000 0 0 0 0 1.000000 0.000000 0.000000 0.000000
v 0.000000 0.500000 0.000000 0.000000 1.000000 0.000000 0.187500 0.000000 0 0 0 0 1.000000 0.000000 0.000000 0.000000
v -0.000000 0.500000 0.000000 -0.000000 1.000000 0.000000 0.250000 0.000000 0 0 0 0 1.000000 0.000000 0.000000 0.000000
v -0.000000 0.500000 0.000000 -0.000000 1.000000 0.000000 0.312500 0.000000 0 0 0 0 1.000000 0.000000 0.000000 0.000000
v -0.000000 0.500000 0.000000 -0.000000 1.000000 0.000000 0.375000 0.000000 0 0 0 0 1.000000 0.000000 0.000000 0.000000
v -0.000000 0.500000 0.000000 -0.000000 1.000000 0.000000 0.437500 0.000000 0 0 0 0 1.000000 0.000000 0.000000 0.000000
v -0.000000 0.500000 -0.000000 -0.000000 1.000000 -0.000000 0.500000 0.000000 0 0 0 0 1.000000 0.000000 0.000000 0.000000
v -0.000000 0.500000 -0.000000 -0.000000 1.000000 -0.000000 0.562500 0.000000 0 0 0 0 1.000000 0.000000 0.000000 0.000000
v -0.000000 0.500000 -0.000000 -0.000000 1.000000 -0.000000 0.625000 0.000000 0 0 0 0 1.000000 0.000000 0.000000 0.000000
v -0.000000 0.500000 -0.000000 -0.000000 1.000000 -0.000000 0.687500 0.000000 0 0 0 0 1.000000 0.000000 0.000000 0.000000
v 0.000000 0.500000 -0.000000 0.000000 1.000000 -0.000000 0.750000 0.000000 0 0 0 0 1.000000 0.000000 0.000000 0.000000
v 0.000000 0.500000 -0.000000 0.000000 1.000000 -0.000000 0.812500 0.000000 0 0 0 0 1.000000 0.000000 0.000000 0.000000
v 0.000000 0.500000 -0.000000 0.000000 1.000000 -0.000000 0.875000 0.000000 0 0 0 0 1.000000 0.000000 0.000000 0.000000
v 0.000000 0.500000 -0.000000 0.000000 1.000000 -0.000000 0.937500 0.000000 0 0 0 0 1.000000 0.000000 0.000000 0.000000
v 0.000000 0.500000 0.000000 0.000000 1.000000 0.000000 1.000000 0.000000 0 0 0 0 1.000000 0.000000 0.000000 0.000000
v 0.097545 0.490393 0.000000 0.195090 0.980785 0.000000 0.000000 0.062500 0 0 0 0 1.000000 0.000000 0.000000 0.000000
v 0.090120 0.490393 0.037329 0.180240 0.980785 0.074658 0.062500 0.062500 0 0 0 0 1.000000 0.000000 0.000000 0.000000
v 0.068975 0.490393 0.068975 0.137950 0.980785 0.137950 0.125000 0.062500 0 0 0 0 1.000000 0.000000 0.000000 0.000000
v 0.037329 0.490393 0.090120 0.074658 0.980785 0.180240 0.187500 0.062500 0 0 0 0 1.000000 0.000000 0.000000 0.000000
v -0.000000 0.490393 0.097545 -0.000000 0.980785 0.195090 0.250000 0.062500 0 0 0 0 1.000000 0.000000 0.000000 0.000000
v -0.037329 0.490393 0.090120 -0.074658 0.980785 0.180240 0.312500 0.062500 0 0 0 0 1.000000 0.000000 0.000000 0.000000
v -0.068975 0.490393 0.068975 -0.137950 0.980785 0.137950 0.375000 0.062500 0 0 0 0 1.000000 0.000000 0.000000 0.000000
v -0.090120 0.490393 0.037329 -0.180240 0.980785 0.074658 0.437500 0.062500 0 0 0 0 1.000000 0.000000 0.000000 0.000000
v -0.097545 0.490393 -0.000000 -0.195090 0.980785 -0.000000 0.500000 0.062500 0 0 0 0 1.000000 0.000000 0.000000 0.000000
v -0.090120 0.490393 -0.037329 -0.180240 0.980785 -0.074658 0.562500 0.062500 0 0 0 0 1.000000 0.000000 0.000000 0.000000
v -0.068975 0.490393 -0.068975 -0.137950 0.980785 -0.137950 0.625000 0.062500 0 0 0 0 1.000000 0.000000 0.000000 0.000000
v -0.037329 0.490393 -0.090120 -0.074658 0.980785 -0.180240 0.687500 0.062500 0 0 0 0 1.000000 0.000000 0.000000 0.000000
v 0.000000 0.490393 -0.097545 0.000000 0.980785 -0.195090 0.750000 0.062500 0 0 0 0 1.000000 0.000000 0.000000 0.000000
v 0.037329 0.490393 -0.090120 0.074658 0.980785 -0.180240 0.812500 0.062500 0 0 0 0 1.000000 0.000000 0.000000 0.000000
v 0.068975 0.490393 -0.068975 0.137950 0.980785 -0.137950 0.875000 0.062500 0 0 0 0 1.000000 0.000000 0.000000 0.000000
v 0.090120 0.490393 -0.037329 0.180240 0.980785 -0.074658 0.937500 0.062500 0 0 0 0 1.000000 0.000000 0.000000 0.000000
v 0.097545 0.490393 0.000000 0.195090 0.980785 0.000000 1.000000 0.062500 0 0 0 0 1.000000 0.000000 0.000000 0.000000
v 0.191342 0.461940 0.000000 0.382683 0.923880 0.000000 0.000000 0.125000 0 0 0 0 1.000000 0.000000 0.000000 0.000000
v 0.176777 0.461940 0.073223 0.353553 0.923880 0.146447 0.062500 0.125000 0 0 0 0 1.000000 0.000000 0.000000 0.000000
v 0.135299 0.461940 0.135299 0.270598 0.923880 0.270598 0.125000 0.125000 0 0 0 0 1.000000 0.000000 0.000000 0.000000
v 0.073223 0.461940 0.176777 0.146447 0.923880 0.353553 0.187500 0.125000 0 0 0 0 1.000000 0.000000 0.000000 0.000000
v -0.000000 0.461940 0.191342 -0.000000 0.923880 0.382683 0.250000 0.125000 0 0 0 0 1.000000 0.000000 0.000000 0.000000
v -0.073223 0.461940 0.176777 -0.146447 0.923880 0.353553 0.312500 0.125000 0 0 0 0 1.000000 0.000000 0.000000 0.000000
v -0.135299 0.461940 0.135299 -0.270598 0.923880 0.270598 0.375000 0.125000 0 0 0 0 1.000000 0.000000 0.000000 0.000000
v -0.176777 0.461940 0.073223 -0.353553 0.923880 0.146447 0.437500 0.125000 0 0 0 0 1.000000 0.000000 0.000000 0.000000
v -0.191342 0.461940 -0.000000 -0.382683 0.923880 -0.000000 0.500000 0.125000 0 0 0 0 1.000000 0.000000 0.000000 0.000000
v -0.176777 0.461940 -0.073223 -0.353553 0.923880 -0.146447 0.562500 0.125000 0 0 0 0 1.000000 0.000000 0.000000 0.000000
v -0.135299 0.461940 -0.135299 -0.270598 0.923880 -0.270598 0.625000 0.125000 0 0 0 0 1.000000 0.000000 0.000000 0.000000
v -0.073223 0.461940 -0.176777 -0.146446 0.923880 -0.353553 0.687500 0.125000 0 0 0 0 1.000000 0.000000 0.000000 0.000000
v 0.000000 0.461940 -0.191342 0.000000 0.923880 -0.382683 0.750000 0.125000 0 0 0 0 1.000000 0.000000 0.000000 0.000000
v 0.073223 0.461940 -0.176777 0.146447 0.923880 -0.353553 0.812500 0.125000 0 0 0 0 1.000000 0.000000 0.000000 0.000000
v 0.135299 0.461940 -0.135299 0.270598 0.923880 -0.270598 0.875000 0.125000 0 0 0 0 1.000000 0.000000 0.000000 0.000000
v 0.176777 0.461940 -0.073223 0.353553 0.923880 -0.146447 0.937500 0.125000 0 0 0 0 1.000000 0.000000 0.000000 0.000000
v 0.191342 0.461940 0.000000 0.382683 0.923880 0.000000 1.000000 0.125000 0 0 0 0 1.000000 0.000000 0.000000 0.000000
v 0.277785 0.415735 0.000000 0.555570 0.831470 0.000000 0.000000 0.187500 0 0 0 0 1.000000 0.000000 0.000000 0.000000
v 0.256640 0.415735 0.106304 0.513280 0.831470 0.212608 0.062500 0.187500 0 0 0 0 1.000000 0.000000 0.000000 0.000000
v 0.196424 0.415735 0.196424 0.392847 0.831470 0.392847 0.125000 0.187500 0 0 0 0 1.000000 0.000000 0.000000 0.000000
v 0.106304 0.415735 0.256640 0.212608 0.831470 0.513280 0.187500 0.187500 0 0 0 0 1.000000 0.000000 0.000000 0.000000
v -0.000000 0.415735 0.277785 -0.000000 0.831470 0.555570 0.250000 0.187500 0 0 0 0 1.000000 0.000000 0.000000 0.000000
v -0.106304 0.415735 0.256640 -0.212608 0.831470 0.513280 0.312500 0.187500 0 0 0 0 1.000000 0.000000 0.000000 0.000000
v -0.196424 0.415735 0.196424 -0.392847 0.831470 0.392847 0.375000 0.187500 0 0 0 0 1.000000 0.000000 0.000000 0.000000
v -0.256640 0.415735 0.106304 -0.513280 0.831470 0.212607 0.437500 0.187500 0 0 0 0 1.000000 0.000000 0.000000 0.000000
v -0.277785 0.415735 -0.000000 -0.555570 0.831470 -0.000000 0.500000 0.187500 0 0 0 0 1.000000 0.000000 0.000000 0.000000
v -0.256640 0.415735 -0.106304 -0.513280 0.831470 -0.212608 0.562500 0.187500 0 0 0 0 1.000000 0.000000 0.000000 0.000000
v -0.196424 0.415735 -0.196424 -0.392847 0.831470 -0.392848 0.625000 0.187500 0 0 0 0 1.000000 0.000000 0.000000 0.000000
v -0.106304 0.415735 -0.256640 -0.212607 0.831470 -0.513280 0.687500 0.187500 0 0 0 0 1.000000 0.000000 0.000000 0.000000
v 0.000000 0.415735 -0.277785 0.000000 0.831470 -0.555570 0.750000 0.187500 0 0 0 0 1.000000 0.000000 0.000000 0.000000
v 0.106304 0.415735 -0.256640 0.212608 0.831470 -0.513280 0.812500 0.187500 0 0 0 0 1.000000 0.000000 0.000000 0.000000
v 0.196424 0.415735 -0.196424 0.392848 0.831470 -0.392847 0.875000 0.187500 0 0 0 0 1.000000 0.000000 0.000000 0.000000
v 0.256640 0.415735 -0.106304 0.513280 0.831470 -0.212608 0.937500 0.187500 0 0 0 0 1.000000 0.000000 0.000000 0.000000
v 0.277785 0.415735 0.000000 0.555570 0.831470 0.000000 1.000000 0.187500 0 0 0 0 1.000000 0.000000 0.000000 0.000000
v 0.353553 0.353553 0.000000 0.707107 0.707107 0.000000 0.000000 0.250000 0 0 0 0 1.000000 0.000000 0.000000 0.000000
v 0.326641 0.353553 0.135299 0.653281 0.707107 0.270598 0.062500 0.250000 0 0 0 0 1.000000 0.000000 0.000000 0.000000
v 0.250000 0.353553 0.250000 0.500000 0.707107 0.500000 0.125000 0.250000 0 0 0 0 1.000000 0.000000 0.000000 0.000000
v 0.135299 0.353553 0.326641 0.270598 0.707107 0.653281 0.187500 0.250000 0 0 0 0 1.000000 0.000000 0.000000 0.000000
v -0.000000 0.353553 0.353553 -0.000000 0.707107 0.707107 0.250000 0.250000 0 0 0 0 1.000000 0.000000 0.000000 0.000000
v -0.135299 0.353553 0.326641 -0.270598 0.707107 0.653281 0.312500 0.250000 0 0 0 0 1.000000 0.000000 0.000000 0.000000
v -0.250000 0.353553 0.250000 -0.500000 0.707107 0.500000 0.375000 0.250000 0 0 0 0 1.000000 0.000000 0.000000 0.000000
v -0.326641 0.353553 0.135299 -0.653282 0.707107 0.270598 0.437500 0.250000 0 0 0 0 1.000000 0.000000 0.000000 0.000000
v -0.353553 0.353553 -0.000000 -0.707107 0.707107 -0.000000 0.500000 0.250000 0 0 0 0 1.000000 0.000000 0.000000 0.000000
v -0.326641 0.353553 -0.135299 -0.653281 0.707107 -0.270598 0.562500 0.250000 0 0 0 0 1.000000 0.000000 0.000000 0.000000
v -0.250000 0.353553 -0.250000 -0.500000 0.707107 -0.500000 0.625000 0.250000 0 0 0 0 1.000000 0.000000 0.000000 0.000000
v -0.135299 0.353553 -0.326641 -0.270598 0.707107 -0.653282 0.687500 0.250000 0 0 0 0 1.000000 0.000000 0.000000 0.000000
v 0.000000 0.353553 -0.353553 0.000000 0.707107 -0.707107 0.750000 0.250000 0 0 0 0 1.000000 0.000000 0.000000 0.000000
v 0.135299 0.353553 -0.326641 0.270598 0.707107 -0.653281 0.812500 0.250000 0 0 0 0 1.000000 0.000000 0.000000 0.000000
v 0.250000 0.353553 -0.250000 0.500000 0.707107 -0.500000 0.875000 0.250000 0 0 0 0 1.000000 0.000000 0.000000 0.000000
v 0.326641 0.353553 -0.135299 0.653282 0.707107 -0.270598 0.937500 0.250000 0 0 0 0 1.000000 0.000000 0.000000 0.000000
v 0.353553 0.353553 0.000000 0.707107 0.707107 0.000000 1.000000 0.250000 0 0 0 0 1.000000 0.000000 0.000000 0.000000
v 0.415735 0.277785 0.000000 0.831470 0.555570 0.000000 0.000000 0.312500 0 0 0 0 1.000000 0.000000 0.000000 0.000000
v 0.384089 0.277785 0.159095 0.768178 0.555570 0.318190 0.062500 0.312500 0 0 0 0 1.000000 0.000000 0.000000 0.000000
v 0.293969 0.277785 0.293969 0.587938 0.555570 0.587938 0.125000 0.312500 0 0 0 0 1.000000 0.000000 0.000000 0.000000
v 0.159095 0.277785 0.384089 0.318190 0.555570 0.768178 0.187500 0.312500 0 0 0 0 1.000000 0.000000 0.000000 0.000000
v -0.000000 0.277785 0.415735 -0.000000 0.555570 0.831470 0.250000 0.312500 0 0 0 0 1.000000 0.000000 0.000000 0.000000
v -0.159095 0.277785 0.384089 -0.318190 0.555570 0.768178 0.312500 0.312500 0 0 0 0 1.000000 0.000000 0.000000 0.000000
v -0.293969 0.277785 0.293969 -0.587938 0.555570 0.587938 0.375000 0.312500 0 0 0 0 1.000000 0.000000 0.000000 0.000000
v -0.384089 0.277785 0.159095 -0.768178 0.555570 0.318190 0.437500 0.312500 0 0 0 0 1.000000 0.000000 0.000000 0.000000
v -0.415735 0.277785 -0.000000 -0.831470 0.555570 -0.000000 0.500000 0.312500 0 0 0 0 1.000000 0.000000 0.000000 0.000000
v -0.384089 0.277785 -0.159095 -0.768178 0.555570 -0.318190 0.562500 0.312500 0 0 0 0 1.000000 0.000000 0.000000 0.000000
v -0.293969 0.277785 -0.293969 -0.587938 0.555570 -0.587938 0.625000 0.312500 0 0 0 0 1.000000 0.000000 0.000000 0.000000
v -0.159095 0.277785 -0.384089 -0.318189 0.555570 -0.768178 0.687500 0.312500 0 0 0 0 1.000000 0.000000 0.000000 0.000000
v 0.000000 0.277785 -0.415735 0.000000 0.555570 -0.831470 0.750000 0.312500 0 0 0 0 1.000000 0.000000 0.000000 0.000000
v 0.159095 0.277785 -0.384089 0.318190 0.555570 -0.768178 0.812500 0.312500 0 0 0 0 1.000000 0.000000 0.000000 0.000000
v 0.293969 0.277785 -0.293969 0.587938 0.555570 -0.587938 0.875000 0.312500 0 0 0 0 1.000000 0.000000 0.000000 0.000000
v 0.384089 0.277785 -0.159095 0.768178 0.555570 -0.318190 0.937500 0.312500 0 0 0 0 1.000000 0.000000 0.000000 0.000000
v 0.415735 0.277785 0.000000 0.831470 0.555570 0.000000 1.000000 0.312500 0 0 0 0 1.000000 0.000000 0.000000 0.000000
v 0.461940 0.191342 0.000000 0.923880 0.382683 0.000000 0.000000 0.375000 0 0 0 0 1.000000 0.000000 0.000000 0.000000
v 0.426777 0.191342 0.176777 0.853553 0.382683 0.353553 0.062500 0.375000 0 0 0 0 1.000000 0.000000 0.000000 0.000000
v 0.326641 0.191342 0.326641 0.653281 0.382683 0.653281 0.125000 0.375000 0 0 0 0 1.000000 0.000000 0.000000 0.000000
v 0.176777 0.191342 0.426777 0.353553 0.382683 0.853553 0.187500 0.375000 0 0 0 0 1.000000 0.000000 0.000000 0.000000
v -0.000000 0.191342 0.461940 -0.000000 0.382683 0.923880 0.250000 0.375000 0 0 0 0 1.000000 0.000000 0.000000 0.000000
v -0.176777 0.191342 0.426777 -0.353553 0.382683 0.853553 0.312500 0.375000 0 0 0 0 1.000000 0.000000 0.000000 0.000000
v -0.326641 0.191342 0.326641 -0.653281 0.382683 0.653281 0.375000 0.375000 0 0 0 0 1.000000 0.000000 0.000000 0.000000
v -0.426777 0.191342 0.176777 -0.853553 0.382683 0.353553 0.437500 0.375000 0 0 0 0 1.000000 0.000000 0.000000 0.000000
v -0.461940 0.191342 -0.000000 -0.923880 0.382683 -0.000000 0.500000 0.375000 0 0 0 0 1.000000 0.000000 0.000000 0.000000
v -0.426777 0.191342 -0.176777 -0.853553 0.382683 -0.353553 0.562500 0.375000 0 0 0 0 1.000000 0.000000 0.000000 0.000000
v -0.326641 0.191342 -0.326641 -0.653281 0.382683 -0.653282 0.625000 0.375000 0 0 0 0 1.000000 0.000000 0.000000 0.000000
v -0.176777 0.191342 -0.426777 -0.353553 0.382683 -0.853553 0.687500 0.375000 0 0 0 0 1.000000 0.000000 0.000000 0.000000
v 0.000000 0.191342 -0.461940 0.000000 0.382683 -0.923880 0.750000 0.375000 0 0 0 0 1.000000 0.000000 0.000000 0.000000
v 0.176777 0.191342 -0.426777 0.353554 0.382683 -0.853553 0.812500 0.375000 0 0 0 0 1.000000 0.000000 0.000000 0.000000
v 0.326641 0.191342 -0.326641 0.653282 0.382683 -0.653281 0.875000 0.375000 0 0 0 0 1.000000 0.000000 0.000000 0.000000
v 0.426777 0.191342 -0.176777 0.853553 0.382683 -0.353553 0.937500 0.375000 0 0 0 0 1.000000 0.000000 0.000000 0.000000
v 0.461940 0.191342 0.000000 0.923880 0.382683 0.000000 1.000000 0.375000 0 0 0 0 1.000000 0.000000 0.000000 0.000000
v 0.490393 0.097545 0.000000 0.980785 0.195090 0.000000 0.000000 0.437500 0 0 0 0 1.000000 0.000000 0.000000 0.000000
v 0.453064 0.097545 0.187665 0.906127 0.195090 0.375330 0.062500 0.437500 0 0 0 0 1.000000 0.000000 0.000000 0.000000
v 0.346760 0.097545 0.346760 0.693520 0.195090 0.693520 0.125000 0.437500 0 0 0 0 1.000000 0.000000 0.000000 0.000000
v 0.187665 0.097545 0.453064 0.375330 0.195090 0.906127 0.187500 0.437500 0 0 0 0 1.000000 0.000000 0.000000 0.000000
v -0.000000 0.097545 0.490393 -0.000000 0.195090 0.980785 0.250000 0.437500 0 0 0 0 1.000000 0.000000 0.000000 0.000000
v -0.187665 0.097545 0.453064 -0.375330 0.195090 0.906127 0.312500 0.437500 0 0 0 0 1.000000 0.000000 0.000000 0.000000
v -0.346760 0.097545 0.346760 -0.693520 0.195090 0.693520 0.375000 0.437500 0 0 0 0 1.000000 0.000000 0.000000 0.000000
v -0.453064 0.097545 0.187665 -0.906128 0.195090 0.375330 0.437500 0.437500 0 0 0 0 1.000000 0.000000 0.000000 0.000000
v -0.490393 0.097545 -0.000000 -0.980785 0.195090 -0.000000 0.500000 0.437500 0 0 0 0 1.000000 0.000000 0.000000 0.000000
v -0.453064 0.097545 -0.187665 -0.906127 0.195090 -0.375330 0.562500 0.437500 0 0 0 0 1.000000 0.000000 0.000000 0.000000
v -0.346760 0.097545 -0.346760 -0.693520 0.195090 -0.693520 0.625000 0.437500 0 0 0 0 1.000000 0.000000 0.000000 0.000000
v -0.187665 0.097545 -0.453064 -0.375330 0.195090 -0.906128 0.687500 0.437500 0 0 0 0 1.000000 0.000000 0.000000 0.000000
v 0.000000 0.097545 -0.490393 0.000000 0.195090 -0.980785 0.750000 0.437500 0 0 0 0 1.000000 0.000000 0.000000 0.000000
v 0.187665 0.097545 -0.453064 0.375330 0.195090 -0.906127 0.812500 0.437500 0 0 0 0 1.000000 0.000000 0.000000 0.000000
v 0.346760 0.097545 -0.346760 0.693520 0.195090 -0.693520 0.875000 0.437500 0 0 0 0 1.000000 0.000000 0.000000 0.000000
v 0.453064 0.097545 -0.187665 0.906128 0.195090 -0.375330 0.937500 0.437500 0 0 0 0 1.000000 0.000000 0.000000 0.000000
v 0.490393 0.097545 0.000000 0.980785 0.195090 0.000000 1.000000 0.437500 0 0 0 0 1.000000 0.000000 0.000000 0.000000
v 0.500000 -0.000000 0.000000 1.000000 -0.000000 0.000000 0.000000 0.500000 0 0 0 0 1.000000 0.000000 0.000000 0.000000
v 0.461940 -0.000000 0.191342 0.923880 -0.000000 0.382683 0.062500 0.500000 0 0 0 0 1.000000 0.000000 0.000000 0.000000
v 0.353553 -0.000000 0.353553 0.707107 -0.000000 0.707107 0.125000 0.500000 0 0 0 0 1.000000 0.000000 0.000000 0.000000
v 0.191342 -0.000000 0.461940 0.382683 -0.000000 0.923880 0.187500 0.500000 0 0 0 0 1.000000 0.000000 0.000000 0.000000
v -0.000000 -0.000000 0.500000 -0.000000 -0.000000 1.000000 0.250000 0.500000 0 0 0 0 1.000000 0.000000 0.000000 0.000000
v -0.191342 -0.000000 0.461940 -0.382684 -0.000000 0.923880 0.312500 0.500000 0 0 0 0 1.000000 0.000000 0.000000 0.000000
v -0.353553 -0.000000 0.353553 -0.707107 -0.000000 0.707107 0.375000 0.500000 0 0 0 0 1.000000 0.000000 0.000000 0.000000
v -0.461940 -0.000000 0.191342 -0.923880 -0.000000 0.382683 0.437500 0.500000 0 0 0 0 1.000000 0.000000 0.000000 0.000000
v -0.500000 -0.000000 -0.000000 -1.000000 -0.000000 -0.000000 0.500000 0.500000 0 0 0 0 1.000000 0.000000 0.000000 0.000000
v -0.461940 -0.000000 -0.191342 -0.923880 -0.000000 -0.382683 0.562500 0.500000 0 0 0 0 1.000000 0.000000 0.000000 0.000000
v -0.353553 -0.000000 -0.353553 -0.707107 -0.000000 -0.707107 0.625000 0.500000 0 0 0 0 1.000000 0.000000 0.000000 0.000000
v -0.191342 -0.000000 -0.461940 -0.382683 -0.000000 -0.923880 0.687500 0.500000 0 0 0 0 1.000000 0.000000 0.000000 0.000000
v 0.000000 -0.000000 -0.500000 0.000000 -0.000000 -1.000000 0.750000 0.500000 0 0 0 0 1.000000 0.000000 0.000000 0.000000
v 0.191342 -0.000000 -0.461940 0.382684 -0.000000 -0.923879 0.812500 0.500000 0 0 0 0 1.000000 0.000000 0.000000 0.000000
v 0.353554 -0.000000 -0.353553 0.707107 -0.000000 -0.707107 0.875000 0.500000 0 0 0 0 1.000000 0.000000 0.000000 0.000000
v 0.461940 -0.000000 -0.191342 0.923880 -0.000000 -0.382683 0.937500 0.500000 0 0 0 0 1.000000 0.000000 0.000000 0.000000
v 0.500000 -0.000000 0.000000 1.000000 -0.000000 0.000000 1.000000 0.500000 0 0 0 0 1.000000 0.000000 0.000000 0.000000
v 0.490393 -0.097545 0.000000 0.980785 -0.195090 0.000000 0.000000 0.562500 0 0 0 0 1.000000 0.000000 0.000000 0.000000
v 0.453064 -0.097545 0.187665 0.906127 -0.195090 0.375330 0.062500 0.562500 0 0 0 0 1.000000 0.000000 0.000000 0.000000
v 0.346760 -0.097545 0.346760 0.693520 -0.195090 0.693520 0.125000 0.562500 0 0 0 0 1.000000 0.000000 0.000000 0.000000
v 0.187665 -0.097545 0.453064 0.375330 -0.195090 0.906127 0.187500 0.562500 0 0 0 0 1.000000 0.000000 0.000000 0.000000
v -0.000000 -0.097545 0.490393 -0.000000 -0.195090 0.980785 0.250000 0.562500 0 0 0 0 1.000000 0.000000 0.000000 0.000000
v -0.187665 -0.097545 0.453064 -0.375330 -0.195090 0.906127 0.312500 0.562500 0 0 0 0 1.000000 0.000000 0.000000 0.000000
v -0.346760 -0.097545 0.346760 -0.693520 -0.195090 0.693520 0.375000 0.562500 0 0 0 0 1.000000 0.000000 0.000000 0.000000
v -0.453064 -0.097545 0.187665 -0.906128 -0.195090 0.375330 0.437500 0.562500 0 0 0 0 1.000000 0.000000 0.000000 0.000000
v -0.490393 -0.097545 -0.000000 -0.980785 -0.195090 -0.000000 0.500000 0.562500 0 0 0 0 1.000000 0.000000 0.000000 0.000000
v -0.453064 -0.097545 -0.187665 -0.906127 -0.195090 -0.375330 0.562500 0.562500 0 0 0 0 1.000000 0.000000 0.000000 0.000000
v -0.346760 -0.097545 -0.346760 -0.693520 -0.195090 -0.693520 0.625000 0.562500 0 0 0 0 1.000000 0.000000 0.000000 0.000000
v -0.187665 -0.097545 -0.453064 -0.375330 -0.195090 -0.906128 0.687500 0.562500 0 0 0 0 1.000000 0.000000 0.000000 0.000000
v 0.000000 -0.097545 -0.490393 0.000000 -0.195090 -0.980785 0.750000 0.562500 0 0 0 0 1.000000 0.000000 0.000000 0.000000
v 0.187665 -0.097545 -0.453064 0.375330 -0.195090 -0.906127 0.812500 0.562500 0 0 0 0 1.000000 0.000000 0.000000 0.000000
v 0.346760 -0.097545 -0.346760 0.693520 -0.195090 -0.693520 0.875000 0.562500 0 0 0 0 1.000000 0.000000 0.000000 0.000000
v 0.453064 -0.097545 -0.187665 0.906127 -0.195090 -0.375330 0.937500 0.562500 0 0 0 0 1.000000 0.000000 0.000000 0.000000
v 0.490393 -0.097545 0.000000 0.980785 -0.195090 0.000000 1.000000 0.562500 0 0 0 0 1.000000 0.000000 0.000000 0.000000
v 0.461940 -0.191342 0.000000 0.923880 -0.382684 0.000000 0.000000 0.625000 0 0 0 0 1.000000 0.000000 0.000000 0.000000
v 0.426777 -0.191342 0.176777 0.853553 -0.382684 0.353553 0.062500 0.625000 0 0 0 0 1.000000 0.000000 0.000000 0.000000
v 0.326641 -0.191342 0.326641 0.653281 -0.382684 0.653281 0.125000 0.625000 0 0 0 0 1.000000 0.000000 0.000000 0.000000
v 0.176777 -0.191342 0.426777 0.353553 -0.382684 0.853553 0.187500 0.625000 0 0 0 0 1.000000 0.000000 0.000000 0.000000
v -0.000000 -0.191342 0.461940 -0.000000 -0.382684 0.923880 0.250000 0.625000 0 0 0 0 1.000000 0.000000 0.000000 0.000000
v -0.176777 -0.191342 0.426777 -0.353553 -0.382684 0.853553 0.312500 0.625000 0 0 0 0 1.000000 0.000000 0.000000 0.000000
v -0.326641 -0.191342 0.326641 -0.653281 -0.382684 0.653281 0.375000 0.625000 0 0 0 0 1.000000 0.000000 0.000000 0.000000
v -0.426777 -0.191342 0.176777 -0.853553 -0.382684 0.353553 0.437500 0.625000 0 0 0 0 1.000000 0.000000 0.000000 0.000000
v -0.461940 -0.191342 -0.000000 -0.923880 -0.382684 -0.000000 0.500000 0.625000 0 0 0 0 1.000000 0.000000 0.000000 0.000000
v -0.426777 -0.191342 -0.176777 -0.853553 -0.382684 -0.353553 0.562500 0.625000 0 0 0 0 1.000000 0.000000 0.000000 0.000000
v -0.326641 -0.191342 -0.326641 -0.653281 -0.382684 -0.653282 0.625000 0.625000 0 0 0 0 1.000000 0.000000 0.000000 0.000000
v -0.176777 -0.191342 -0.426777 -0.353553 -0.382684 -0.853553 0.687500 0.625000 0 0 0 0 1.000000 0.000000 0.000000 0.000000
v 0.000000 -0.191342 -0.461940 0.000000 -0.382684 -0.923880 0.750000 0.625000 0 0 0 0 1.000000 0.000000 0.000000 0.000000
v 0.176777 -0.191342 -0.426777 0.353554 -0.382684 -0.853553 0.812500 0.625000 0 0 0 0 1.000000 0.000000 0.000000 0.000000
v 0.326641 -0.191342 -0.326641 0.653282 -0.382684 -0.653281 0.875000 0.625000 0 0 0 0 1.000000 0.000000 0.000000 0.000000
v 0.426777 -0.191342 -0.176777 0.853553 -0.382684 -0.353553 0.937500 0.625000 0 0 0 0 1.000000 0.000000 0.000000 0.000000
v 0.461940 -0.191342 0.000000 0.923880 -0.382684 0.000000 1.000000 0.625000 0 0 0 0 1.000000 0.000000 0.000000 0.000000
v 0.415735 -0.277785 0.000000 0.831470 -0.555570 0.000000 0.000000 0.687500 0 0 0 0 1.000000 0.000000 0.000000 0.000000
v 0.384089 -0.277785 0.159095 0.768178 -0.555570 0.318190 0.062500 0.687500 0 0 0 0 1.000000 0.000000 0.000000 0.000000
v 0.293969 -0.277785 0.293969 0.587938 -0.555570 0.587938 0.125000 0.687500 0 0 0 0 1.000000 0.000000 0.000000 0.000000
v 0.159095 -0.277785 0.384089 0.318190 -0.555570 0.768178 0.187500 0.687500 0 0 0 0 1.000000 0.000000 0.000000 0.000000
v -0.000000 -0.277785 0.415735 -0.000000 -0.555570 0.831470 0.250000 0.687500 0 0 0 0 1.000000 0.000000 0.000000 0.000000
v -0.159095 -0.277785 0.384089 -0.318190 -0.555570 0.768178 0.312500 0.687500 0 0 0 0 1.000000 0.000000 0.000000 0.000000
v -0.293969 -0.277785 0.293969 -0.587938 -0.555570 0.587938 0.375000 0.687500 0 0 0 0 1.000000 0.000000 0.000000 0.000000
v -0.384089 -0.277785 0.159095 -0.768178 -0.555570 0.318189 0.437500 0.687500 0 0 0 0 1.000000 0.000000 0.000000 0.000000
v -0.415735 -0.277785 -0.000000 -0.831470 -0.555570 -0.000000 0.500000 0.687500 0 0 0 0 1.000000 0.000000 0.000000 0.000000
v -0.384089 -0.277785 -0.159095 -0.768178 -0.555570 -0.318190 0.562500 0.687500 0 0 0 0 1.000000 0.000000 0.000000 0.000000
v -0.293969 -0.277785 -0.293969 -0.587938 -0.555570 -0.587938 0.625000 0.687500 0 0 0 0 1.000000 0.000000 0.000000 0.000000
v -0.159095 -0.277785 -0.384089 -0.318189 -0.555570 -0.768178 0.687500 0.687500 0 0 0 0 1.000000 0.000000 0.000000 0.000000
v 0.000000 -0.277785 -0.415735 0.000000 -0.555570 -0.831470 0.750000 0.687500 0 0 0 0 1.000000 0.000000 0.000000 0.000000
v 0.159095 -0.277785 -0.384089 0.318190 -0.555570 -0.768178 0.812500 0.687500 0 0 0 0 1.000000 0.000000 0.000000 0.000000
v 0.293969 -0.277785 -0.293969 0.587938 -0.555570 -0.587938 0.875000 0.687500 0 0 0 0 1.000000 0.000000 0.000000 0.000000
v 0.384089 -0.277785 -0.159095 0.768178 -0.555570 -0.318190 0.937500 0.687500 0 0 0 0 1.000000 0.000000 0.000000 0.000000
v 0.415735 -0.277785 0.000000 0.831470 -0.555570 0.000000 1.000000 0.687500 0 0 0 0 1.000000 0.000000 0.000000 0.000000
v 0.353553 -0.353553 0.000000 0.707107 -0.707107 0.000000 0.000000 0.750000 0 0 0 0 1.000000 0.000000 0.000000 0.000000
v 0.326641 -0.353553 0.135299 0.653281 -0.707107 0.270598 0.062500 0.750000 0 0 0 0 1.000000 0.000000 0.000000 0.000000
v 0.250000 -0.353553 0.250000 0.500000 -0.707107 0.500000 0.125000 0.750000 0 0 0 0 1.000000 0.000000 0.000000 0.000000
v 0.135299 -0.353553 0.326641 0.270598 -0.707107 0.653281 0.187500 0.750000 0 0 0 0 1.000000 0.000000 0.000000 0.000000
v -0.000000 -0.353553 0.353553 -0.000000 -0.707107 0.707107 0.250000 0.750000 0 0 0 0 1.000000 0.000000 0.000000 0.000000
v -0.135299 -0.353553 0.326641 -0.270598 -0.707107 0.653281 0.312500 0.750000 0 0 0 0 1.000000 0.000000 0.000000 0.000000
v -0.250000 -0.353553 0.250000 -0.500000 -0.707107 0.500000 0.375000 0.750000 0 0 0 0 1.000000 0.000000 0.000000 0.000000
v -0.326641 -0.353553 0.135299 -0.653282 -0.707107 0.270598 0.437500 0.750000 0 0 0 0 1.000000 0.000000 0.000000 0.000000
v -0.353553 -0.353553 -0.000000 -0.707107 -0.707107 -0.000000 0.500000 0.750000 0 0 0 0 1.000000 0.000000 0.000000 0.000000
v -0.326641 -0.353553 -0.135299 -0.653281 -0.707107 -0.270598 0.562500 0.750000 0 0 0 0 1.000000 0.000000 0.000000 0.000000
v -0.250000 -0.353553 -0.250000 -0.500000 -0.707107 -0.500000 0.625000 0.750000 0 0 0 0 1.000000 0.000000 0.000000 0.000000
v -0.135299 -0.353553 -0.326641 -0.270598 -0.707107 -0.653282 0.687500 0.750000 0 0 0 0 1.000000 0.000000 0.000000 0.000000
v 0.000000 -0.353553 -0.353553 0.000000 -0.707107 -0.707107 0.750000 0.750000 0 0 0 0 1.000000 0.000000 0.000000 0.000000
v 0.135299 -0.353553 -0.326641 0.270598 -0.707107 -0.653281 0.812500 0.750000 0 0 0 0 1.000000 0.000000 0.000000 0.000000
v 0.250000 -0.353553 -0.250000 0.500000 -0.707107 -0.500000 0.875000 0.750000 0 0 0 0 1.000000 0.000000 0.000000 0.000000
v 0.326641 -0.353553 -0.135299 0.653282 -0.707107 -0.270598 0.937500 0.750000 0 0 0 0 1.000000 0.000000 0.000000 0.000000
v 0.353553 -0.353553 0.000000 0.707107 -0.707107 0.000000 1.000000 0.750000 0 0 0 0 1.000000 0.000000 0.000000 0.000000
v 0.277785 -0.415735 0.000000 0.555570 -0.831470 0.000000 0.000000 0.812500 0 0 0 0 1.000000 0.000000 0.000000 0.000000
v 0.256640 -0.415735 0.106304 0.513280 -0.831470 0.212608 0.062500 0.812500 0 0 0 0 1.000000 0.000000 0.000000 0.000000
v 0.196424 -0.415735 0.196424 0.392847 -0.831470 0.392847 0.125000 0.812500 0 0 0 0 1.000000 0.000000 0.000000 0.000000
v 0.106304 -0.415735 0.256640 0.212608 -0.831470 0.513280 0.187500 0.812500 0 0 0 0 1.000000 0.000000 0.000000 0.000000
v -0.000000 -0.415735 0.277785 -0.000000 -0.831470 0.555570 0.250000 0.812500 0 0 0 0 1.000000 0.000000 0.000000 0.000000
v -0.106304 -0.415735 0.256640 -0.212608 -0.831470 0.513280 0.312500 0.812500 0 0 0 0 1.000000 0.000000 0.000000 0.000000
v -0.196424 -0.415735 0.196424 -0.392847 -0.831470 0.392847 0.375000 0.812500 0 0 0 0 1.000000 0.000000 0.000000 0.000000
v -0.256640 -0.415735 0.106304 -0.513280 -0.831470 0.212607 0.437500 0.812500 0 0 0 0 1.000000 0.000000 0.000000 0.000000
v -0.277785 -0.415735 -0.000000 -0.555570 -0.831470 -0.000000 0.500000 0.812500 0 0 0 0 1.000000 0.000000 0.000000 0.000000
v -0.256640 -0.415735 -0.106304 -0.513280 -0.831470 -0.212608 0.562500 0.812500 0 0 0 0 1.000000 0.000000 0.000000 0.000000
v -0.196424 -0.415735 -0.196424 -0.392847 -0.831470 -0.392848 0.625000 0.812500 0 0 0 0 1.000000 0.000000 0.000000 0.000000
v -0.106304 -0.415735 -0.256640 -0.212607 -0.831470 -0.513280 0.687500 0.812500 0 0 0 0 1.000000 0.000000 0.000000 0.000000
v 0.000000 -0.415735 -0.277785 0.000000 -0.831470 -0.555570 0.750000 0.812500 0 0 0 0 1.000000 0.000000 0.000000 0.000000
v 0.106304 -0.415735 -0.256640 0.212608 -0.831470 -0.513280 0.812500 0.812500 0 0 0 0 1.000000 0.000000 0.000000 0.000000
v 0.196424 -0.415735 -0.196424 0.392848 -0.831470 -0.392847 0.875000 0.812500 0 0 0 0 1.000000 0.000000 0.000000 0.000000
v 0.256640 -0.415735 -0.106304 0.513280 -0.831470 -0.212608 0.937500 0.812500 0 0 0 0 1.000000 0.000000 0.000000 0.000000
v 0.277785 -0.415735 0.000000 0.555570 -0.831470 0.000000 1.000000 0.812500 0 0 0 0 1.000000 0.000000 0.000000 0.000000
v 0.191342 -0.461940 0.000000 0.382683 -0.923880 0.000000 0.000000 0.875000 0 0 0 0 1.000000 0.000000 0.000000 0.000000
v 0.176777 -0.461940 0.073223 0.353553 -0.923880 0.146447 0.062500 0.875000 0 0 0 0 1.000000 0.000000 0.000000 0.000000
v 0.135299 -0.461940 0.135299 0.270598 -0.923880 0.270598 0.125000 0.875000 0 0 0 0 1.000000 0.000000 0.000000 0.000000
v 0.073223 -0.461940 0.176777 0.146447 -0.923880 0.353553 0.187500 0.875000 0 0 0 0 1.000000 0.000000 0.000000 0.000000
v -0.000000 -0.461940 0.191342 -0.000000 -0.923880 0.382683 0.250000 0.875000 0 0 0 0 1.000000 0.000000 0.000000 0.000000
v -0.073223 -0.461940 0.176777 -0.146447 -0.923880 0.353553 0.312500 0.875000 0 0 0 0 1.000000 0.000000 0.000000 0.000000
v -0.135299 -0.461940 0.135299 -0.270598 -0.923880 0.270598 0.375000 0.875000 0 0 0 0 1.000000 0.000000 0.000000 0.000000
v -0.176777 -0.461940 0.073223 -0.353553 -0.923880 0.146446 0.437500 0.875000 0 0 0 0 1.000000 0.000000 0.000000 0.000000
v -0.191342 -0.461940 -0.000000 -0.382683 -0.923880 -0.000000 0.500000 0.875000 0 0 0 0 1.000000 0.000000 0.000000 0.000000
v -0.176777 -0.461940 -0.073223 -0.353553 -0.923880 -0.146447 0.562500 0.875000 0 0 0 0 1.000000 0.000000 0.000000 0.000000
v -0.135299 -0.461940 -0.135299 -0.270598 -0.923880 -0.270598 0.625000 0.875000 0 0 0 0 1.000000 0.000000 0.000000 0.000000
v -0.073223 -0.461940 -0.176777 -0.146446 -0.923880 -0.353553 0.687500 0.875000 0 0 0 0 1.000000 0.000000 0.000000 0.000000
v 0.000000 -0.461940 -0.191342 0.000000 -0.923880 -0.382683 0.750000 0.875000 0 0 0 0 1.000000 0.000000 0.000000 0.000000
v 0.073223 -0.461940 -0.176777 0.146447 -0.923880 -0.353553 0.812500 0.875000 0 0 0 0 1.000000 0.000000 0.000000 0.000000
v 0.135299 -0.461940 -0.135299 0.270598 -0.923880 -0.270598 0.875000 0.875000 0 0 0 0 1.000000 0.000000 0.000000 0.000000
v 0.176777 -0.461940 -0.073223 0.353553 -0.923880 -0.146447 0.937500 0.875000 0 0 0 0 1.000000 0.000000 0.000000 0.000000
v 0.191342 -0.461940 0.000000 0.382683 -0.923880 0.000000 1.000000 0.875000 0 0 0 0 1.000000 0.000000 0.000000 0.000000
v 0.097545 -0.490393 0.000000 0.195090 -0.980785 0.000000 0.000000 0.937500 0 0 0 0 1.000000 0.000000 0.000000 0.000000
v 0.090120 -0.490393 0.037329 0.180240 -0.980785 0.074658 0.062500 0.937500 0 0 0 0 1.000000 0.000000 0.000000 0.000000
v 0.068975 -0.490393 0.068975 0.137950 -0.980785 0.137950 0.125000 0.937500 0 0 0 0 1.000000 0.000000 0.000000 0.000000
v 0.037329 -0.490393 0.090120 0.074658 -0.980785 0.180240 0.187500 0.937500 0 0 0 0 1.000000 0.000000 0.000000 0.000000
v -0.000000 -0.490393 0.097545 -0.000000 -0.980785 0.195090 0.250000 0.937500 0 0 0 0 1.000000 0.000000 0.000000 0.000000
v -0.037329 -0.490393 0.090120 -0.074658 -0.980785 0.180240 0.312500 0.937500 0 0 0 0 1.000000 0.000000 0.000000 0.000000
v -0.068975 -0.490393 0.068975 -0.137950 -0.980785 0.137950 0.375000 0.937500 0 0 0 0 1.000000 0.000000 0.000000 0.000000
v -0.090120 -0.490393 0.037329 -0.180240 -0.980785 0.074658 0.437500 0.937500 0 0 0 0 1.000000 0.000000 0.000000 0.000000
v -0.097545 -0.490393 -0.000000 -0.195090 -0.980785 -0.000000 0.500000 0.937500 0 0 0 0 1.000000 0.000000 0.000000 0.000000
v -0.090120 -0.490393 -0.037329 -0.180240 -0.980785 -0.074658 0.562500 0.937500 0 0 0 0 1.000000 0.000000 0.000000 0.000000
v -0.068975 -0.490393 -0.068975 -0.137950 -0.980785 -0.137950 0.625000 0.937500 0 0 0 0 1.000000 0.000000 0.000000 0.000000
v -0.037329 -0.490393 -0.090120 -0.074658 -0.980785 -0.180240 0.687500 0.937500 0 0 0 0 1.000000 0.000000 0.000000 0.000000
v 0.000000 -0.490393 -0.097545 0.000000 -0.980785 -0.195090 0.750000 0.937500 0 0 0 0 1.000000 0.000000 0.000000 0.000000
v 0.037329 -0.490393 -0.090120 0.074658 -0.980785 -0.180240 0.812500 0.937500 0 0 0 0 1.000000 0.000000 0.000000 0.000000
v 0.068975 -0.490393 -0.068975 0.137950 -0.980785 -0.137950 0.875000 0.937500 0 0 0 0 1.000000 0.000000 0.000000 0.000000
v 0.090120 -0.490393 -0.037329 0.180240 -0.980785 -0.074658 0.937500 0.937500 0 0 0 0 1.000000 0.000000 0.000000 0.000000
v 0.097545 -0.490393 0.000000 0.195090 -0.980785 0.000000 1.000000 0.937500 0 0 0 0 1.000000 0.000000 0.000000 0.000000
v -0.000000 -0.500000 -0.000000 -0.000000 -1.000000 -0.000000 0.000000 1.000000 0 0 0 0 1.000000 0.000000 0.000000 0.000000
v -0.000000 -0.500000 -0.000000 -0.000000 -1.000000 -0.000000 0.062500 1.000000 0 0 0 0 1.000000 0.000000 0.000000 0.000000
v -0.000000 -0.500000 -0.000000 -0.000000 -1.000000 -0.000000 0.125000 1.000000 0 0 0 0 1.000000 0.000000 0.000000 0.000000
v -0.000000 -0.500000 -0.000000 -0.000000 -1.000000 -0.000000 0.187500 1.000000 0 0 0 0 1.000000 0.000000 0.000000 0.000000
v 0.000000 -0.500000 -0.000000 0.000000 -1.000000 -0.000000 0.250000 1.000000 0 0 0 0 1.000000 0.000000 0.000000 0.000000
v 0.000000 -0.500000 -0.000000 0.000000 -1.000000 -0.000000 0.312500 1.000000 0 0 0 0 1.000000 0.000000 0.000000 0.000000
v 0.000000 -0.500000 -0.000000 0.000000 -1.000000 -0.000000 0.375000 1.000000 0 0 0 0 1.000000 0.000000 0.000000 0.000000
v 0.000000 -0.500000 -0.000000 0.000000 -1.000000 -0.000000 0.437500 1.000000 0 0 0 0 1.000000 0.000000 0.000000 0.000000
v 0.000000 -0.500000 0.000000 0.000000 -1.000000 0.000000 0.500000 1.000000 0 0 0 0 1.000000 0.000000 0.000000 0.000000
v 0.000000 -0.500000 0.000000 0.000000 -1.000000 0.000000 0.562500 1.000000 0 0 0 0 1.000000 0.000000 0.000000 0.000000
v 0.000000 -0.500000 0.000000 0.000000 -1.000000 0.000000 0.625000 1.000000 0 0 0 0 1.000000 0.000000 0.000000 0.000000
v 0.000000 -0.500000 0.000000 0.000000 -1.000000 0.000000 0.687500 1.000000 0 0 0 0 1.000000 0.000000 0.000000 0.000000
v -0.000000 -0.500000 0.000000 -0.000000 -1.000000 0.000000 0.750000 1.000000 0 0 0 0 1.000000 0.000000 0.000000 0.000000
v -0.000000 -0.500000 0.000000 -0.000000 -1.000000 0.000000 0.812500 1.000000 0 0 0 0 1.000000 0.000000 0.000000 0.000000
v -0.000000 -0.500000 0.000000 -0.000000 -1.000000 0.000000 0.875000 1.000000 0 0 0 0 1.000000 0.000000 0.000000 0.000000
v -0.000000 -0.500000 0.000000 -0.000000 -1.000000 0.000000 0.937500 1.000000 0 0 0 0 1.000000 0.000000 0.000000 0.000000
v -0.000000 -0.500000 -0.000000 -0.000000 -1.000000 -0.000000 1.000000 1.000000 0 0 0 0 1.000000 0.000000 0.000000 0.000000
indices 1536
i 0 1 17
i 17 1 18
i 1 2 18
i 18 2 19
i 2 3 19
i 19 3 20
i 3 4 20
i 20 4 21
i 4 5 21
i 21 5 22
i 5 6 22
i 22 6 23
i 6 7 23
i 23 7 24
i 7 8 24
i 24 8 25
i 8 9 25
i 25 9 26
i 9 10 26
i 26 10 27
i 10 11 27
i 27 11 28
i 11 12 28
i 28 12 29
i 12 13 29
i 29 13 30
i 13 14 30
i 30 14 31
i 14 15 31
i 31 15 32
i 15 16 32
i 32 16 33
i 17 18 34
i 34 18 35
i 18 19 35
i 35 19 36
i 19 20 36
i 36 20 37
i 20 21 37
i 37 21 38
i 21 22 38
i 38 22 39
i 22 23 39
i 39 23 40
i 23 24 40
i 40 24 41
i 24 25 41
i 41 25 42
i 25 26 42
i 42 26 43
i 26 27 43
i 43 27 44
i 27 28 44
i 44 28 45
i 28 29 45
i 45 29 46
i 29 30 46
i 46 30 47
i 30 31 47
i 47 31 48
i 31 32 48
i 48 32 49
i 32 33 49
i 49 33 50
i 34 35 51
i 51 35 52
i 35 36 52
i 52 36 53
i 36 37 53
i 53 37 54
i 37 38 54
i 54 38 55
i 38 39 55
i 55 39 56
i 39 40 56
i 56 40 57
i 40 41 57
i 57 41 58
i 41 42 58
i 58 42 59
i 42 43 59
i 59 43 60
i 43 44 60
i 60 44 61
i 44 45 61
i 61 45 62
i 45 46 62
i 62 46 63
i 46 47 63
i 63 47 64
i 47 48 64
i 64 48 65
i 48 49 65
i 65 49 66
i 49 50 66
i 66 50 67
i 51 52 68
i 68 52 69
i 52 53 69
i 69 53 70
i 53 54 70
i 70 54 71
i 54 55 71
i 71 55 72
i 55 56 72
i 72 56 73
i 56 57 73
i 73 57 74
i 57 58 74
i 74 58 75
i 58 59 75
i 75 59 76
i 59 60 76
i 76 60 77
i 60 61 77
i 77 61 78
i 61 62 78
i 78 62 79
i 62 63 79
i 79 63 80
i 63 64 80
i 80 64 81
i 64 65 81
i 81 65 82
i 65 66 82
i 82 66 83
i 66 67 83
i 83 67 84
i 68 69 85
i 85 69 86
i 69 70 86
i 86 70 87
i 70 71 87
i 87 71 88
i 71 72 88
i 88 72 89
i 72 73 89
i 89 73 90
i 73 74 90
i 90 74 91
i 74 75 91
i 91 75 92
i 75 76 92
i 92 76 93
i 76 77 93
i 93 77 94
i 77 78 94
i 94 78 95
i 78 79 95
i 95 79 96
i 79 80 96
i 96 80 97
i 80 81 97
i 97 81 98
i 81 82 98
i 98 82 99
i 82 83 99
i 99 83 100
i 83 84 100
i 100 84 101
i 85 86 102
i 102 86 103
i 86 87 103
i 103 87 104
i 87 88 104
i 104 88 105
i 88 89 105
i 105 89 106
i 89 90 106
i 106 90 107
i 90 91 107
i 107 91 108
i 91 92 108
i 108 92 109
i 92 93 109
i 109 93 110
i 93 94 110
i 110 94 111
i 94 95 111
i 111 95 112
i 95 96 112
i 112 96 113
i 96 97 113
i 113 97 114
i 97 98 114
i 114 98 115
i 98 99 115
i 115 99 116
i 99 100 116
i 116 100 117
i 100 101 117
i 117 101 118
i 102 103 119
i 119 103 120
i 103 104 120
i 120 104 121
i 104 105 121
i 121 105 122
i 105 106 122
i 122 106 123
i 106 107 123
i 123 107 124
i 107 108 124
i 124 108 125
i 108 109 125
i 125 109 126
i 109 110 126
i 126 110 127
i 110 111 127
i 127 111 128
i 111 112 128
i 128 112 129
i 112 113 129
i 129 113 130
i 113 114 130
i 130 114 131
i 114 115 131
i 131 115 132
i 115 116 132
i 132 116 133
i 116 117 133
i 133 117 134
i 117 118 134
i 134 118 135
i 119 120 136
i 136 120 137
i 120 121 137
i 137 121 138
i 121 122 138
i 138 122 139
i 122 123 139
i 139 123 140
i 123 124 140
i 140 124 141
i 124 125 141
i 141 125 142
i 125 126 142
i 142 126 143
i 126 127 143
i 143 127 144
i 127 128 144
i 144 128 145
i 128 129 145
i 145 129 146
i 129 130 146
i 146 130 147
i 130 131 147
i 147 131 148
i 131 132 148
i 148 132 149
i 132 133 149
i 149 133 150
i 133 134 150
i 150 134 151
i 134 135 151
i 151 135 152
i 136 137 153
i 153 137 154
i 137 138 154
i 154 138 155
i 138 139 155
i 155 139 156
i 139 140 156
i 156 140 157
i 140 141 157
i 157 141 158
i 141 142 158
i 158 142 159
i 142 143 159
i 159 143 160
i 143 144 160
i 160 144 161
i 144 145 161
i 161 145 162
i 145 146 162
i 162 146 163
i 146 147 163
i 163 147 164
i 147 148 164
i 164 148 165
i 148 149 165
i 165 149 166
i 149 150 166
i 166 150 167
i 150 151 167
i 167 151 168
i 151 152 168
i 168 152 169
i 153 154 170
i 170 154 171
i 154 155 171
i 171 155 172
i 155 156 172
i 172 156 173
i 156 157 173
i 173 157 174
i 157 158 174
i 174 158 175
i 158 159 175
i 175 159 176
i 159 160 176
i 176 160 177
i 160 161 177
i 177 161 178
i 161 162 178
i 178 162 179
i 162 163 179
i 179 163 180
i 163 164 180
i 180 164 181
i 164 165 181
i 181 165 182
i 165 166 182
i 182 166 183
i 166 167 183
i 183 167 184
i 167 168 184
i 184 168 185
i 168 169 185
i 185 169 186
i 170 171 187
i 187 171 188
i 171 172 188
i 188 172 189
i 172 173 189
i 189 173 190
i 173 174 190
i 190 174 191
i 174 175 191
i 191 175 192
i 175 176 192
i 192 176 193
i 176 177 193
i 193 177 194
i 177 178 194
i 194 178 195
i 178 179 195
i 195 179 196
i 179 180 196
i 196 180 197
i 180 181 197
i 197 181 198
i 181 182 198
i 198 182 199
i 182 183 199
i 199 183 200
i 183 184 200
i 200 184 201
i 184 185 201
i 201 185 202
i 185 186 202
i 202 186 203
i 187 188 204
i 204 188 205
i 188 189 205
i 205 189 206
i 189 190 206
i 206 190 207
i 190 191 207
i 207 191 208
i 191 192 208
i 208 192 209
i 192 193 209
i 209 193 210
i 193 194 210
i 210 194 211
i 194 195 211
i 211 195 212
i 195 196 212
i 212 196 213
i 196 197 213
i 213 197 214
i 197 198 214
i 214 198 215
i 198 199 215
i 215 199 216
i 199 200 216
i 216 200 217
i 200 201 217
i 217 201 218
i 201 202 218
i 218 202 219
i 202 203 219
i 219 203 220
i 204 205 221
i 221 205 222
i 205 206 222
i 222 206 223
i 206 207 223
i 223 207 224
i 207 208 224
i 224 208 225
i 208 209 225
i 225 209 226
i 209 210 226
i 226 210 227
i 210 211 227
i 227 211 228
i 211 212 228
i 228 212 229
i 212 213 229
i 229 213 230
i 213 214 230
i 230 214 231
i 214 215 231
i 231 215 232
i 215 216 232
i 232 216 233
i 216 217 233
i 233 217 234
i 217 218 234
i 234 218 235
i 218 219 235
i 235 219 236
i 219 220 236
i 236 220 237
i 221 222 238
i 238 222 239
i 222 223 239
i 239 223 240
i 223 224 240
i 240 224 241
i 224 225 241
i 241 225 242
i 225 226 242
i 242 226 243
i 226 227 243
i 243 227 244
i 227 228 244
i 244 228 245
i 228 229 245
i 245 229 246
i 229 230 246
i 246 230 247
i 230 231 247
i 247 231 248
i 231 232 248
i 248 232 249
i 232 233 249
i 249 233 250
i 233 234 250
i 250 234 251
i 234 235 251
i 251 235 252
i 235 236 252
i 252 236 253
i 236 237 253
i 253 237 254
i 238 239 255
i 255 239 256
i 239 240 256
i 256 240 257
i 240 241 257
i 257 241 258
i 241 242 258
i 258 242 259
i 242 243 259
i 259 243 260
i 243 244 260
i 260 244 261
i 244 245 261
i 261 245 262
i 245 246 262
i 262 246 263
i 246 247 263
i 263 247 264
i 247 248 264
i 264 248 265
i 248 249 265
i 265 249 266
i 249 250 266
i 266 250 267
i 250 251 267
i 267 251 268
i 251 252 268
i 268 252 269
i 252 253 269
i 269 253 270
i 253 254 270
i 270 254 271
i 255 256 272
i 272 256 273
i 256 257 273
i 273 257 274
i 257 258 274
i 274 258 275
i 258 259 275
i 275 259 276
i 259 260 276
i 276 260 277
i 260 261 277
i 277 261 278
i 261 262 278
i 278 262 279
i 262 263 279
i 279 263 280
i 263 264 280
i 280 264 281
i 264 265 281
i 281 265 282
i 265 266 282
i 282 266 283
i 266 267 283
i 283 267 284
i 267 268 284
i 284 268 285
i 268 269 285
i 285 269 286
i 269 270 286
i 286 270 287
i 270 271 287
i 287 271 288
